<svg xmlns="http://www.w3.org/2000/svg" version="1.1" xmlns:xlink="http://www.w3.org/1999/xlink" xmlns:svgjs="http://svgjs.dev/svgjs" width="1500" height="1500" viewBox="0 0 1500 1500"><rect width="1500" height="1500" fill="#ffffff"></rect><g transform="matrix(0.6666666666666666,0,0,0.6666666666666666,249.39393939393938,526.1770775348149)"><svg viewBox="0 0 396 177" data-background-color="#ffffff" preserveAspectRatio="xMidYMid meet" height="670" width="1500" xmlns="http://www.w3.org/2000/svg" xmlns:xlink="http://www.w3.org/1999/xlink"><g id="tight-bounds" transform="matrix(1,0,0,1,0.2400000000000091,0.19400882762190008)"><svg viewBox="0 0 395.52 176.6119823447562" height="176.6119823447562" width="395.52"><g><svg viewBox="0 0 395.52 176.6119823447562" height="176.6119823447562" width="395.52"><g transform="matrix(1,0,0,1,0,109.1532904103906)"><svg viewBox="0 0 395.52 67.45869193436562" height="67.45869193436562" width="395.52"><g id="textblocktransform"><svg viewBox="0 0 395.52 67.45869193436562" height="67.45869193436562" width="395.52" id="textblock"><g><svg viewBox="0 0 395.52 67.45869193436562" height="67.45869193436562" width="395.52"><g transform="matrix(1,0,0,1,0,0)"><svg width="395.52" viewBox="1.35 -36.3 216.34 36.9" height="67.45869193436562" data-palette-color="#ca3433"><g class="wordmark-text-0" data-fill-palette-color="primary" id="text-0"><path d="M15-26.4L20.6-26.4 20.6-19.65 15-19.65 15-9.6Q15-7.8 15.6-6.98 16.2-6.15 17.8-6.15L17.8-6.15 20.6-6.15 20.6-0.3Q19.4 0.1 17.5 0.35 15.6 0.6 14.2 0.6L14.2 0.6Q9.8 0.6 7.43-1 5.05-2.6 5.05-6.45L5.05-6.45 5.05-19.65 1.35-19.65 1.35-26.4 5.45-26.4 7.6-34.4 15-34.4 15-26.4ZM38.25-27Q44.3-27 48.1-24.98 51.9-22.95 51.9-18.4L51.9-18.4 51.9-8.1Q51.9-7.25 52.3-6.7 52.7-6.15 53.5-6.15L53.5-6.15 55.3-6.15 55.3-0.4Q55.15-0.3 54.52-0.08 53.9 0.15 52.75 0.38 51.6 0.6 50.1 0.6L50.1 0.6Q47.2 0.6 45.32-0.28 43.45-1.15 42.75-2.7L42.75-2.7Q40.85-1.2 38.5-0.3 36.15 0.6 33 0.6L33 0.6Q23.7 0.6 23.7-6.8L23.7-6.8Q23.7-10.65 25.77-12.68 27.85-14.7 31.75-15.45 35.65-16.2 41.95-16.2L41.95-16.2 41.95-17.5Q41.95-19.05 40.87-19.85 39.8-20.65 38.1-20.65L38.1-20.65Q36.55-20.65 35.42-20.1 34.3-19.55 34.3-18.35L34.3-18.35 34.3-18.15 24.5-18.15Q24.45-18.4 24.45-18.85L24.45-18.85Q24.45-22.6 28.02-24.8 31.6-27 38.25-27L38.25-27ZM41.95-11.5Q37.7-11.5 35.67-10.58 33.65-9.65 33.65-8.1L33.65-8.1Q33.65-5.6 37.05-5.6L37.05-5.6Q39-5.6 40.47-6.65 41.95-7.7 41.95-9.25L41.95-9.25 41.95-11.5ZM71.09-27Q76.4-27 80.07-24.93 83.75-22.85 83.75-18.5L83.75-18.5 74.5-18.5Q74.5-19.95 73.2-20.55L73.2-20.55Q72.3-21.05 70.95-21.05L70.95-21.05Q67.34-21.05 67.34-19.35L67.34-19.35Q67.34-18.4 68.59-18 69.84-17.6 72.7-17.15L72.7-17.15Q76.2-16.65 78.55-15.98 80.9-15.3 82.65-13.58 84.4-11.85 84.4-8.75L84.4-8.75Q84.4-3.7 80.62-1.55 76.84 0.6 70.75 0.6L70.75 0.6Q67.25 0.6 64.14-0.38 61.05-1.35 59.09-3.4 57.15-5.45 57.15-8.6L57.15-8.6 66.4-8.6 66.4-8.4Q66.45-6.7 67.82-6.03 69.2-5.35 70.75-5.35L70.75-5.35Q74.9-5.35 74.9-7.3L74.9-7.3Q74.9-8.3 73.59-8.75 72.3-9.2 69.34-9.7L69.34-9.7Q65.8-10.3 63.52-11 61.25-11.7 59.55-13.38 57.84-15.05 57.84-18.05L57.84-18.05Q57.84-22.9 61.52-24.95 65.2-27 71.09-27L71.09-27ZM99.04-16.3L107.49-26.4 119.09-26.4 109.34-15.75 119.34 0 108.04 0 102.49-9.05 99.04-5.7 99.04 0 89.09 0 89.09-36.3 99.04-36.3 99.04-16.3ZM132.44-23.95Q135.29-27 139.84-27L139.84-27Q145.19-27 148.09-23.53 150.99-20.05 150.99-13.25L150.99-13.25Q150.99-6.4 148.09-2.9 145.19 0.6 139.84 0.6L139.84 0.6Q134.34 0.6 131.44-3.75L131.44-3.75 130.59 0 122.49 0 122.49-36.25 132.44-36.25 132.44-23.95ZM136.74-19.65Q134.54-19.65 133.44-18.07 132.34-16.5 132.34-14L132.34-14 132.34-12.35Q132.34-9.85 133.44-8.3 134.54-6.75 136.74-6.75L136.74-6.75Q141.04-6.75 141.04-11.85L141.04-11.85 141.04-14.5Q141.04-19.65 136.74-19.65L136.74-19.65ZM173.99-27Q178.59-27 180.89-24.45 183.19-21.9 183.19-17.1L183.19-17.1 183.19 0 173.24 0 173.24-15.9Q173.24-17.6 172.36-18.63 171.49-19.65 169.89-19.65L169.89-19.65Q168.04-19.65 166.89-18.45 165.74-17.25 165.74-15.5L165.74-15.5 165.74 0 155.79 0 155.79-26.4 163.94-26.4 164.59-22.4Q166.14-24.5 168.66-25.75 171.19-27 173.99-27L173.99-27ZM199.13-23.95Q201.98-27 206.53-27L206.53-27Q211.88-27 214.78-23.53 217.69-20.05 217.69-13.25L217.69-13.25Q217.69-6.4 214.78-2.9 211.88 0.6 206.53 0.6L206.53 0.6Q201.03 0.6 198.13-3.75L198.13-3.75 197.28 0 189.19 0 189.19-36.25 199.13-36.25 199.13-23.95ZM203.44-19.65Q201.23-19.65 200.13-18.07 199.03-16.5 199.03-14L199.03-14 199.03-12.35Q199.03-9.85 200.13-8.3 201.23-6.75 203.44-6.75L203.44-6.75Q207.73-6.75 207.73-11.85L207.73-11.85 207.73-14.5Q207.73-19.65 203.44-19.65L203.44-19.65Z" fill="#000000" data-fill-palette-color="primary"></path></g></svg></g></svg></g></svg></g></svg></g><g transform="matrix(1,0,0,1,104.5320877467067,0)"><svg viewBox="0 0 186.4558245065866 93.2279122532933" height="93.2279122532933" width="186.4558245065866"><g><svg xmlns="http://www.w3.org/2000/svg" version="1.1" data-icon="task" data-container-transform="translate(0 4)" viewBox="0 4 16 8" x="0" y="0" height="93.2279122532933" width="186.4558245065866" class="icon-icon-0" data-fill-palette-color="accent" id="icon-0"><path d="M0 4V12H8V7.906L7 8.906V11H1V5H5.188L6.188 4zM7.594 4L4.5 7.063 3.219 5.782 1.781 7.22 3.781 9.22 4.5 9.908 5.219 9.22 9 5.407 7.594 4.001zM10 6V7H16V6zM10 9V10H15V9z" fill="#000000" data-fill-palette-color="accent"></path></svg></g></svg></g><g></g></svg></g><defs></defs></svg><rect width="395.52" height="176.6119823447562" fill="none" stroke="none" visibility="hidden"></rect></g></svg></g></svg>